<svg preserveAspectRatio="none" width="1019" height="216" viewBox="0 0 1019 216" fill="none" xmlns="http://www.w3.org/2000/svg">
<path d="M12.3523 53V18.0909H24.5568C26.9886 18.0909 28.9943 18.5114 30.5739 19.3523C32.1534 20.1818 33.3295 21.3011 34.1023 22.7102C34.875 24.108 35.2614 25.6591 35.2614 27.3636C35.2614 28.8636 34.9943 30.1023 34.4602 31.0795C33.9375 32.0568 33.2443 32.8295 32.3807 33.3977C31.5284 33.9659 30.6023 34.3864 29.6023 34.6591V35C30.6705 35.0682 31.7443 35.4432 32.8239 36.125C33.9034 36.8068 34.8068 37.7841 35.5341 39.0568C36.2614 40.3295 36.625 41.8864 36.625 43.7273C36.625 45.4773 36.2273 47.0511 35.4318 48.4489C34.6364 49.8466 33.3807 50.9545 31.6648 51.7727C29.9489 52.5909 27.7159 53 24.9659 53H12.3523ZM16.5795 49.25H24.9659C27.7273 49.25 29.6875 48.7159 30.8466 47.6477C32.017 46.5682 32.6023 45.2614 32.6023 43.7273C32.6023 42.5455 32.3011 41.4545 31.6989 40.4545C31.0966 39.4432 30.2386 38.6364 29.125 38.0341C28.0114 37.4205 26.6932 37.1136 25.1705 37.1136H16.5795V49.25ZM16.5795 33.4318H24.4205C25.6932 33.4318 26.8409 33.1818 27.8636 32.6818C28.8977 32.1818 29.7159 31.4773 30.3182 30.5682C30.9318 29.6591 31.2386 28.5909 31.2386 27.3636C31.2386 25.8295 30.7045 24.5284 29.6364 23.4602C28.5682 22.3807 26.875 21.8409 24.5568 21.8409H16.5795V33.4318ZM43.0256 53V26.8182H46.9119V30.7727H47.1847C47.6619 29.4773 48.5256 28.4261 49.7756 27.6193C51.0256 26.8125 52.4347 26.4091 54.0028 26.4091C54.2983 26.4091 54.6676 26.4148 55.1108 26.4261C55.554 26.4375 55.8892 26.4545 56.1165 26.4773V30.5682C55.9801 30.5341 55.6676 30.483 55.179 30.4148C54.7017 30.3352 54.196 30.2955 53.6619 30.2955C52.3892 30.2955 51.2528 30.5625 50.2528 31.0966C49.2642 31.6193 48.4801 32.3466 47.9006 33.2784C47.3324 34.1989 47.0483 35.25 47.0483 36.4318V53H43.0256ZM60.8849 53V26.8182H64.9077V53H60.8849ZM62.9304 22.4545C62.1463 22.4545 61.4702 22.1875 60.902 21.6534C60.3452 21.1193 60.0668 20.4773 60.0668 19.7273C60.0668 18.9773 60.3452 18.3352 60.902 17.8011C61.4702 17.267 62.1463 17 62.9304 17C63.7145 17 64.3849 17.267 64.9418 17.8011C65.5099 18.3352 65.794 18.9773 65.794 19.7273C65.794 20.4773 65.5099 21.1193 64.9418 21.6534C64.3849 22.1875 63.7145 22.4545 62.9304 22.4545ZM76.2983 37.25V53H72.2756V26.8182H76.1619V30.9091H76.5028C77.1165 29.5795 78.0483 28.5114 79.2983 27.7045C80.5483 26.8864 82.1619 26.4773 84.1392 26.4773C85.9119 26.4773 87.4631 26.8409 88.7926 27.5682C90.1222 28.2841 91.1563 29.375 91.8949 30.8409C92.6335 32.2955 93.0028 34.1364 93.0028 36.3636V53H88.9801V36.6364C88.9801 34.5795 88.446 32.9773 87.3778 31.8295C86.3097 30.6705 84.8438 30.0909 82.9801 30.0909C81.696 30.0909 80.5483 30.3693 79.5369 30.9261C78.5369 31.483 77.7472 32.2955 77.1676 33.3636C76.5881 34.4318 76.2983 35.7273 76.2983 37.25ZM110.922 63.3636C108.979 63.3636 107.308 63.1136 105.911 62.6136C104.513 62.125 103.348 61.4773 102.416 60.6705C101.496 59.875 100.763 59.0227 100.217 58.1136L103.422 55.8636C103.786 56.3409 104.246 56.8864 104.803 57.5C105.359 58.125 106.121 58.6648 107.087 59.1193C108.064 59.5852 109.342 59.8182 110.922 59.8182C113.036 59.8182 114.78 59.3068 116.155 58.2841C117.53 57.2614 118.217 55.6591 118.217 53.4773V48.1591H117.876C117.581 48.6364 117.161 49.2273 116.615 49.9318C116.081 50.625 115.308 51.2443 114.297 51.7898C113.297 52.3239 111.945 52.5909 110.24 52.5909C108.126 52.5909 106.229 52.0909 104.547 51.0909C102.876 50.0909 101.553 48.6364 100.575 46.7273C99.6094 44.8182 99.1264 42.5 99.1264 39.7727C99.1264 37.0909 99.598 34.7557 100.541 32.767C101.484 30.767 102.797 29.2216 104.479 28.1307C106.161 27.0284 108.104 26.4773 110.308 26.4773C112.013 26.4773 113.365 26.7614 114.365 27.3295C115.376 27.8864 116.149 28.5227 116.683 29.2386C117.229 29.9432 117.649 30.5227 117.945 30.9773H118.354V26.8182H122.24V53.75C122.24 56 121.729 57.8295 120.706 59.2386C119.695 60.6591 118.331 61.6989 116.615 62.358C114.911 63.0284 113.013 63.3636 110.922 63.3636ZM110.786 48.9773C112.399 48.9773 113.763 48.608 114.876 47.8693C115.99 47.1307 116.837 46.0682 117.416 44.6818C117.996 43.2955 118.286 41.6364 118.286 39.7045C118.286 37.8182 118.001 36.1534 117.433 34.7102C116.865 33.267 116.024 32.1364 114.911 31.3182C113.797 30.5 112.422 30.0909 110.786 30.0909C109.081 30.0909 107.661 30.5227 106.524 31.3864C105.399 32.25 104.553 33.4091 103.984 34.8636C103.428 36.3182 103.149 37.9318 103.149 39.7045C103.149 41.5227 103.433 43.1307 104.001 44.5284C104.581 45.9148 105.433 47.0057 106.558 47.8011C107.695 48.5852 109.104 48.9773 110.786 48.9773ZM129.604 53V26.8182H133.626V53H129.604ZM131.649 22.4545C130.865 22.4545 130.189 22.1875 129.621 21.6534C129.064 21.1193 128.786 20.4773 128.786 19.7273C128.786 18.9773 129.064 18.3352 129.621 17.8011C130.189 17.267 130.865 17 131.649 17C132.433 17 133.104 17.267 133.661 17.8011C134.229 18.3352 134.513 18.9773 134.513 19.7273C134.513 20.4773 134.229 21.1193 133.661 21.6534C133.104 22.1875 132.433 22.4545 131.649 22.4545ZM145.017 37.25V53H140.994V26.8182H144.881V30.9091H145.222C145.835 29.5795 146.767 28.5114 148.017 27.7045C149.267 26.8864 150.881 26.4773 152.858 26.4773C154.631 26.4773 156.182 26.8409 157.511 27.5682C158.841 28.2841 159.875 29.375 160.614 30.8409C161.352 32.2955 161.722 34.1364 161.722 36.3636V53H157.699V36.6364C157.699 34.5795 157.165 32.9773 156.097 31.8295C155.028 30.6705 153.563 30.0909 151.699 30.0909C150.415 30.0909 149.267 30.3693 148.256 30.9261C147.256 31.483 146.466 32.2955 145.886 33.3636C145.307 34.4318 145.017 35.7273 145.017 37.25ZM179.641 63.3636C177.697 63.3636 176.027 63.1136 174.629 62.6136C173.232 62.125 172.067 61.4773 171.135 60.6705C170.214 59.875 169.482 59.0227 168.936 58.1136L172.141 55.8636C172.504 56.3409 172.964 56.8864 173.521 57.5C174.078 58.125 174.839 58.6648 175.805 59.1193C176.783 59.5852 178.061 59.8182 179.641 59.8182C181.754 59.8182 183.499 59.3068 184.874 58.2841C186.249 57.2614 186.936 55.6591 186.936 53.4773V48.1591H186.595C186.3 48.6364 185.879 49.2273 185.334 49.9318C184.8 50.625 184.027 51.2443 183.016 51.7898C182.016 52.3239 180.663 52.5909 178.959 52.5909C176.845 52.5909 174.947 52.0909 173.266 51.0909C171.595 50.0909 170.271 48.6364 169.294 46.7273C168.328 44.8182 167.845 42.5 167.845 39.7727C167.845 37.0909 168.317 34.7557 169.26 32.767C170.203 30.767 171.516 29.2216 173.197 28.1307C174.879 27.0284 176.822 26.4773 179.027 26.4773C180.732 26.4773 182.084 26.7614 183.084 27.3295C184.095 27.8864 184.868 28.5227 185.402 29.2386C185.947 29.9432 186.368 30.5227 186.663 30.9773H187.072V26.8182H190.959V53.75C190.959 56 190.447 57.8295 189.425 59.2386C188.413 60.6591 187.05 61.6989 185.334 62.358C183.629 63.0284 181.732 63.3636 179.641 63.3636ZM179.504 48.9773C181.118 48.9773 182.482 48.608 183.595 47.8693C184.709 47.1307 185.555 46.0682 186.135 44.6818C186.714 43.2955 187.004 41.6364 187.004 39.7045C187.004 37.8182 186.72 36.1534 186.152 34.7102C185.584 33.267 184.743 32.1364 183.629 31.3182C182.516 30.5 181.141 30.0909 179.504 30.0909C177.8 30.0909 176.379 30.5227 175.243 31.3864C174.118 32.25 173.271 33.4091 172.703 34.8636C172.146 36.3182 171.868 37.9318 171.868 39.7045C171.868 41.5227 172.152 43.1307 172.72 44.5284C173.3 45.9148 174.152 47.0057 175.277 47.8011C176.413 48.5852 177.822 48.9773 179.504 48.9773ZM213.8 53H209.368L222.186 18.0909H226.55L239.368 53H234.936L224.504 23.6136H224.232L213.8 53ZM215.436 39.3636H233.3V43.1136H215.436V39.3636ZM285.987 18.0909V53H281.896L262.874 25.5909H262.533V53H258.305V18.0909H262.396L281.487 45.5682H281.828V18.0909H285.987ZM304.878 53.5455C302.355 53.5455 300.179 52.9886 298.349 51.875C296.531 50.75 295.128 49.1818 294.139 47.1705C293.162 45.1477 292.673 42.7955 292.673 40.1136C292.673 37.4318 293.162 35.0682 294.139 33.0227C295.128 30.9659 296.503 29.3636 298.264 28.2159C300.037 27.0568 302.105 26.4773 304.469 26.4773C305.832 26.4773 307.179 26.7045 308.509 27.1591C309.838 27.6136 311.048 28.3523 312.139 29.375C313.23 30.3864 314.099 31.7273 314.747 33.3977C315.395 35.0682 315.719 37.125 315.719 39.5682V41.2727H295.537V37.7955H311.628C311.628 36.3182 311.332 35 310.741 33.8409C310.162 32.6818 309.332 31.767 308.253 31.0966C307.185 30.4261 305.923 30.0909 304.469 30.0909C302.866 30.0909 301.48 30.4886 300.31 31.2841C299.151 32.0682 298.259 33.0909 297.634 34.3523C297.009 35.6136 296.696 36.9659 296.696 38.4091V40.7273C296.696 42.7045 297.037 44.3807 297.719 45.7557C298.412 47.1193 299.372 48.1591 300.599 48.875C301.827 49.5795 303.253 49.9318 304.878 49.9318C305.935 49.9318 306.889 49.7841 307.741 49.4886C308.605 49.1818 309.349 48.7273 309.974 48.125C310.599 47.5114 311.082 46.75 311.423 45.8409L315.31 46.9318C314.901 48.25 314.213 49.4091 313.247 50.4091C312.281 51.3977 311.088 52.1705 309.668 52.7273C308.247 53.2727 306.651 53.5455 304.878 53.5455ZM327.77 53L319.793 26.8182H324.02L329.679 46.8636H329.952L335.543 26.8182H339.838L345.361 46.7955H345.634L351.293 26.8182H355.52L347.543 53H343.588L337.861 32.8864H337.452L331.724 53H327.77ZM374.884 53V18.0909H386.679C389.418 18.0909 391.656 18.5852 393.395 19.5739C395.145 20.5511 396.44 21.875 397.281 23.5455C398.122 25.2159 398.543 27.0795 398.543 29.1364C398.543 31.1932 398.122 33.0625 397.281 34.7443C396.452 36.4261 395.168 37.767 393.429 38.767C391.69 39.7557 389.463 40.25 386.747 40.25H378.293V36.5H386.611C388.486 36.5 389.991 36.1761 391.128 35.5284C392.264 34.8807 393.088 34.0057 393.599 32.9034C394.122 31.7898 394.384 30.5341 394.384 29.1364C394.384 27.7386 394.122 26.4886 393.599 25.3864C393.088 24.2841 392.259 23.4205 391.111 22.7955C389.963 22.1591 388.44 21.8409 386.543 21.8409H379.111V53H374.884ZM415.503 53.5455C412.98 53.5455 410.804 52.9886 408.974 51.875C407.156 50.75 405.753 49.1818 404.764 47.1705C403.787 45.1477 403.298 42.7955 403.298 40.1136C403.298 37.4318 403.787 35.0682 404.764 33.0227C405.753 30.9659 407.128 29.3636 408.889 28.2159C410.662 27.0568 412.73 26.4773 415.094 26.4773C416.457 26.4773 417.804 26.7045 419.134 27.1591C420.463 27.6136 421.673 28.3523 422.764 29.375C423.855 30.3864 424.724 31.7273 425.372 33.3977C426.02 35.0682 426.344 37.125 426.344 39.5682V41.2727H406.162V37.7955H422.253C422.253 36.3182 421.957 35 421.366 33.8409C420.787 32.6818 419.957 31.767 418.878 31.0966C417.81 30.4261 416.548 30.0909 415.094 30.0909C413.491 30.0909 412.105 30.4886 410.935 31.2841C409.776 32.0682 408.884 33.0909 408.259 34.3523C407.634 35.6136 407.321 36.9659 407.321 38.4091V40.7273C407.321 42.7045 407.662 44.3807 408.344 45.7557C409.037 47.1193 409.997 48.1591 411.224 48.875C412.452 49.5795 413.878 49.9318 415.503 49.9318C416.56 49.9318 417.514 49.7841 418.366 49.4886C419.23 49.1818 419.974 48.7273 420.599 48.125C421.224 47.5114 421.707 46.75 422.048 45.8409L425.935 46.9318C425.526 48.25 424.838 49.4091 423.872 50.4091C422.906 51.3977 421.713 52.1705 420.293 52.7273C418.872 53.2727 417.276 53.5455 415.503 53.5455ZM432.463 53V26.8182H436.349V30.7727H436.622C437.099 29.4773 437.963 28.4261 439.213 27.6193C440.463 26.8125 441.872 26.4091 443.44 26.4091C443.736 26.4091 444.105 26.4148 444.548 26.4261C444.991 26.4375 445.327 26.4545 445.554 26.4773V30.5682C445.418 30.5341 445.105 30.483 444.616 30.4148C444.139 30.3352 443.634 30.2955 443.099 30.2955C441.827 30.2955 440.69 30.5625 439.69 31.0966C438.702 31.6193 437.918 32.3466 437.338 33.2784C436.77 34.1989 436.486 35.25 436.486 36.4318V53H432.463ZM468.868 32.6818L465.254 33.7045C465.027 33.1023 464.692 32.517 464.249 31.9489C463.817 31.3693 463.226 30.892 462.476 30.517C461.726 30.142 460.766 29.9545 459.595 29.9545C457.993 29.9545 456.658 30.3239 455.589 31.0625C454.533 31.7898 454.004 32.7159 454.004 33.8409C454.004 34.8409 454.368 35.6307 455.095 36.2102C455.822 36.7898 456.959 37.2727 458.504 37.6591L462.391 38.6136C464.732 39.1818 466.476 40.0511 467.624 41.2216C468.771 42.3807 469.345 43.875 469.345 45.7045C469.345 47.2045 468.913 48.5455 468.05 49.7273C467.197 50.9091 466.004 51.8409 464.47 52.5227C462.936 53.2045 461.152 53.5455 459.118 53.5455C456.447 53.5455 454.237 52.9659 452.487 51.8068C450.737 50.6477 449.629 48.9545 449.163 46.7273L452.982 45.7727C453.345 47.1818 454.033 48.2386 455.044 48.9432C456.067 49.6477 457.402 50 459.05 50C460.925 50 462.413 49.6023 463.516 48.8068C464.629 48 465.186 47.0341 465.186 45.9091C465.186 45 464.868 44.2386 464.232 43.625C463.595 43 462.618 42.5341 461.3 42.2273L456.936 41.2045C454.538 40.6364 452.777 39.7557 451.652 38.5625C450.538 37.358 449.982 35.8523 449.982 34.0455C449.982 32.5682 450.396 31.2614 451.226 30.125C452.067 28.9886 453.209 28.0966 454.652 27.4489C456.107 26.8011 457.754 26.4773 459.595 26.4773C462.186 26.4773 464.22 27.0455 465.697 28.1818C467.186 29.3182 468.243 30.8182 468.868 32.6818ZM475.401 62.8182V26.8182H479.287V30.9773H479.764C480.06 30.5227 480.469 29.9432 480.991 29.2386C481.526 28.5227 482.287 27.8864 483.276 27.3295C484.276 26.7614 485.628 26.4773 487.332 26.4773C489.537 26.4773 491.48 27.0284 493.162 28.1307C494.844 29.233 496.156 30.7955 497.099 32.8182C498.043 34.8409 498.514 37.2273 498.514 39.9773C498.514 42.75 498.043 45.1534 497.099 47.1875C496.156 49.2102 494.849 50.7784 493.179 51.892C491.509 52.9943 489.582 53.5455 487.401 53.5455C485.719 53.5455 484.372 53.267 483.361 52.7102C482.349 52.142 481.571 51.5 481.026 50.7841C480.48 50.0568 480.06 49.4545 479.764 48.9773H479.423V62.8182H475.401ZM479.355 39.9091C479.355 41.8864 479.645 43.6307 480.224 45.142C480.804 46.642 481.651 47.8182 482.764 48.6705C483.878 49.5114 485.241 49.9318 486.855 49.9318C488.537 49.9318 489.94 49.4886 491.065 48.6023C492.202 47.7045 493.054 46.5 493.622 44.9886C494.202 43.4659 494.491 41.7727 494.491 39.9091C494.491 38.0682 494.207 36.4091 493.639 34.9318C493.082 33.4432 492.236 32.267 491.099 31.4034C489.974 30.5284 488.56 30.0909 486.855 30.0909C485.219 30.0909 483.844 30.5057 482.73 31.3352C481.616 32.1534 480.776 33.3011 480.207 34.7784C479.639 36.2443 479.355 37.9545 479.355 39.9091ZM515.628 53.5455C513.105 53.5455 510.929 52.9886 509.099 51.875C507.281 50.75 505.878 49.1818 504.889 47.1705C503.912 45.1477 503.423 42.7955 503.423 40.1136C503.423 37.4318 503.912 35.0682 504.889 33.0227C505.878 30.9659 507.253 29.3636 509.014 28.2159C510.787 27.0568 512.855 26.4773 515.219 26.4773C516.582 26.4773 517.929 26.7045 519.259 27.1591C520.588 27.6136 521.798 28.3523 522.889 29.375C523.98 30.3864 524.849 31.7273 525.497 33.3977C526.145 35.0682 526.469 37.125 526.469 39.5682V41.2727H506.287V37.7955H522.378C522.378 36.3182 522.082 35 521.491 33.8409C520.912 32.6818 520.082 31.767 519.003 31.0966C517.935 30.4261 516.673 30.0909 515.219 30.0909C513.616 30.0909 512.23 30.4886 511.06 31.2841C509.901 32.0682 509.009 33.0909 508.384 34.3523C507.759 35.6136 507.446 36.9659 507.446 38.4091V40.7273C507.446 42.7045 507.787 44.3807 508.469 45.7557C509.162 47.1193 510.122 48.1591 511.349 48.875C512.577 49.5795 514.003 49.9318 515.628 49.9318C516.685 49.9318 517.639 49.7841 518.491 49.4886C519.355 49.1818 520.099 48.7273 520.724 48.125C521.349 47.5114 521.832 46.75 522.173 45.8409L526.06 46.9318C525.651 48.25 524.963 49.4091 523.997 50.4091C523.031 51.3977 521.838 52.1705 520.418 52.7273C518.997 53.2727 517.401 53.5455 515.628 53.5455ZM543.224 53.5455C540.77 53.5455 538.656 52.9659 536.884 51.8068C535.111 50.6477 533.747 49.0511 532.793 47.017C531.838 44.983 531.361 42.6591 531.361 40.0455C531.361 37.3864 531.849 35.0398 532.827 33.0057C533.815 30.9602 535.19 29.3636 536.952 28.2159C538.724 27.0568 540.793 26.4773 543.156 26.4773C544.997 26.4773 546.656 26.8182 548.134 27.5C549.611 28.1818 550.821 29.1364 551.764 30.3636C552.707 31.5909 553.293 33.0227 553.52 34.6591H549.497C549.19 33.4659 548.509 32.4091 547.452 31.4886C546.406 30.5568 544.997 30.0909 543.224 30.0909C541.656 30.0909 540.281 30.5 539.099 31.3182C537.929 32.125 537.014 33.267 536.355 34.7443C535.707 36.2102 535.384 37.9318 535.384 39.9091C535.384 41.9318 535.702 43.6932 536.338 45.1932C536.986 46.6932 537.895 47.858 539.065 48.6875C540.247 49.517 541.634 49.9318 543.224 49.9318C544.27 49.9318 545.219 49.75 546.071 49.3864C546.923 49.0227 547.645 48.5 548.236 47.8182C548.827 47.1364 549.247 46.3182 549.497 45.3636H553.52C553.293 46.9091 552.73 48.3011 551.832 49.5398C550.946 50.767 549.77 51.7443 548.304 52.4716C546.849 53.1875 545.156 53.5455 543.224 53.5455ZM570.787 26.8182V30.2273H557.219V26.8182H570.787ZM561.173 20.5455H565.196V45.5C565.196 46.6364 565.361 47.4886 565.69 48.0568C566.031 48.6136 566.463 48.9886 566.986 49.1818C567.52 49.3636 568.082 49.4545 568.673 49.4545C569.116 49.4545 569.48 49.4318 569.764 49.3864C570.048 49.3295 570.276 49.2841 570.446 49.25L571.264 52.8636C570.991 52.9659 570.611 53.0682 570.122 53.1705C569.634 53.2841 569.014 53.3409 568.264 53.3409C567.128 53.3409 566.014 53.0966 564.923 52.608C563.844 52.1193 562.946 51.375 562.23 50.375C561.526 49.375 561.173 48.1136 561.173 46.5909V20.5455ZM576.838 53V26.8182H580.861V53H576.838ZM578.884 22.4545C578.099 22.4545 577.423 22.1875 576.855 21.6534C576.298 21.1193 576.02 20.4773 576.02 19.7273C576.02 18.9773 576.298 18.3352 576.855 17.8011C577.423 17.267 578.099 17 578.884 17C579.668 17 580.338 17.267 580.895 17.8011C581.463 18.3352 581.747 18.9773 581.747 19.7273C581.747 20.4773 581.463 21.1193 580.895 21.6534C580.338 22.1875 579.668 22.4545 578.884 22.4545ZM609.638 26.8182L599.956 53H595.865L586.183 26.8182H590.547L597.774 47.6818H598.047L605.274 26.8182H609.638ZM624.987 53.5455C622.464 53.5455 620.288 52.9886 618.459 51.875C616.641 50.75 615.237 49.1818 614.249 47.1705C613.271 45.1477 612.783 42.7955 612.783 40.1136C612.783 37.4318 613.271 35.0682 614.249 33.0227C615.237 30.9659 616.612 29.3636 618.374 28.2159C620.146 27.0568 622.214 26.4773 624.578 26.4773C625.942 26.4773 627.288 26.7045 628.618 27.1591C629.947 27.6136 631.158 28.3523 632.249 29.375C633.339 30.3864 634.209 31.7273 634.857 33.3977C635.504 35.0682 635.828 37.125 635.828 39.5682V41.2727H615.646V37.7955H631.737C631.737 36.3182 631.442 35 630.851 33.8409C630.271 32.6818 629.442 31.767 628.362 31.0966C627.294 30.4261 626.033 30.0909 624.578 30.0909C622.976 30.0909 621.589 30.4886 620.419 31.2841C619.26 32.0682 618.368 33.0909 617.743 34.3523C617.118 35.6136 616.805 36.9659 616.805 38.4091V40.7273C616.805 42.7045 617.146 44.3807 617.828 45.7557C618.521 47.1193 619.482 48.1591 620.709 48.875C621.936 49.5795 623.362 49.9318 624.987 49.9318C626.044 49.9318 626.999 49.7841 627.851 49.4886C628.714 49.1818 629.459 48.7273 630.084 48.125C630.709 47.5114 631.192 46.75 631.533 45.8409L635.419 46.9318C635.01 48.25 634.322 49.4091 633.357 50.4091C632.391 51.3977 631.197 52.1705 629.777 52.7273C628.357 53.2727 626.76 53.5455 624.987 53.5455ZM654.084 21.8409V18.0909H680.266V21.8409H669.288V53H665.061V21.8409H654.084ZM693.084 53.5455C690.72 53.5455 688.646 52.983 686.862 51.858C685.089 50.733 683.703 49.1591 682.703 47.1364C681.714 45.1136 681.22 42.75 681.22 40.0455C681.22 37.3182 681.714 34.9375 682.703 32.9034C683.703 30.8693 685.089 29.2898 686.862 28.1648C688.646 27.0398 690.72 26.4773 693.084 26.4773C695.447 26.4773 697.516 27.0398 699.288 28.1648C701.072 29.2898 702.459 30.8693 703.447 32.9034C704.447 34.9375 704.947 37.3182 704.947 40.0455C704.947 42.75 704.447 45.1136 703.447 47.1364C702.459 49.1591 701.072 50.733 699.288 51.858C697.516 52.983 695.447 53.5455 693.084 53.5455ZM693.084 49.9318C694.879 49.9318 696.357 49.4716 697.516 48.5511C698.675 47.6307 699.533 46.4205 700.089 44.9205C700.646 43.4205 700.925 41.7955 700.925 40.0455C700.925 38.2955 700.646 36.6648 700.089 35.1534C699.533 33.642 698.675 32.4205 697.516 31.4886C696.357 30.5568 694.879 30.0909 693.084 30.0909C691.288 30.0909 689.811 30.5568 688.652 31.4886C687.493 32.4205 686.635 33.642 686.078 35.1534C685.521 36.6648 685.243 38.2955 685.243 40.0455C685.243 41.7955 685.521 43.4205 686.078 44.9205C686.635 46.4205 687.493 47.6307 688.652 48.5511C689.811 49.4716 691.288 49.9318 693.084 49.9318ZM744.224 26.8182C744.02 25.0909 743.19 23.75 741.736 22.7955C740.281 21.8409 738.497 21.3636 736.384 21.3636C734.838 21.3636 733.486 21.6136 732.327 22.1136C731.179 22.6136 730.281 23.3011 729.634 24.1761C728.997 25.0511 728.679 26.0455 728.679 27.1591C728.679 28.0909 728.901 28.892 729.344 29.5625C729.798 30.2216 730.378 30.7727 731.082 31.2159C731.787 31.6477 732.526 32.0057 733.298 32.2898C734.071 32.5625 734.781 32.7841 735.429 32.9545L738.974 33.9091C739.884 34.1477 740.895 34.4773 742.009 34.8977C743.134 35.3182 744.207 35.892 745.23 36.6193C746.264 37.3352 747.116 38.2557 747.787 39.3807C748.457 40.5057 748.793 41.8864 748.793 43.5227C748.793 45.4091 748.298 47.1136 747.31 48.6364C746.332 50.1591 744.901 51.3693 743.014 52.267C741.139 53.1648 738.861 53.6136 736.179 53.6136C733.679 53.6136 731.514 53.2102 729.685 52.4034C727.866 51.5966 726.435 50.4716 725.389 49.0284C724.355 47.5852 723.77 45.9091 723.634 44H727.997C728.111 45.3182 728.554 46.4091 729.327 47.2727C730.111 48.125 731.099 48.7614 732.293 49.1818C733.497 49.5909 734.793 49.7955 736.179 49.7955C737.793 49.7955 739.241 49.5341 740.526 49.0114C741.81 48.4773 742.827 47.7386 743.577 46.7955C744.327 45.8409 744.702 44.7273 744.702 43.4545C744.702 42.2955 744.378 41.3523 743.73 40.625C743.082 39.8977 742.23 39.3068 741.173 38.8523C740.116 38.3977 738.974 38 737.747 37.6591L733.452 36.4318C730.724 35.6477 728.565 34.5284 726.974 33.0739C725.384 31.6193 724.588 29.7159 724.588 27.3636C724.588 25.4091 725.116 23.7045 726.173 22.25C727.241 20.7841 728.673 19.6477 730.469 18.8409C732.276 18.0227 734.293 17.6136 736.52 17.6136C738.77 17.6136 740.77 18.017 742.52 18.8239C744.27 19.6193 745.656 20.7102 746.679 22.0966C747.713 23.483 748.259 25.0568 748.315 26.8182H744.224ZM766.584 26.8182V30.2273H753.016V26.8182H766.584ZM756.97 20.5455H760.993V45.5C760.993 46.6364 761.158 47.4886 761.487 48.0568C761.828 48.6136 762.26 48.9886 762.783 49.1818C763.317 49.3636 763.879 49.4545 764.47 49.4545C764.913 49.4545 765.277 49.4318 765.561 49.3864C765.845 49.3295 766.072 49.2841 766.243 49.25L767.061 52.8636C766.788 52.9659 766.408 53.0682 765.919 53.1705C765.43 53.2841 764.811 53.3409 764.061 53.3409C762.925 53.3409 761.811 53.0966 760.72 52.608C759.641 52.1193 758.743 51.375 758.027 50.375C757.322 49.375 756.97 48.1136 756.97 46.5909V20.5455ZM772.635 53V26.8182H776.521V30.7727H776.794C777.271 29.4773 778.135 28.4261 779.385 27.6193C780.635 26.8125 782.044 26.4091 783.612 26.4091C783.908 26.4091 784.277 26.4148 784.72 26.4261C785.163 26.4375 785.499 26.4545 785.726 26.4773V30.5682C785.589 30.5341 785.277 30.483 784.788 30.4148C784.311 30.3352 783.805 30.2955 783.271 30.2955C781.999 30.2955 780.862 30.5625 779.862 31.0966C778.874 31.6193 778.089 32.3466 777.51 33.2784C776.942 34.1989 776.658 35.25 776.658 36.4318V53H772.635ZM800.675 53.5455C798.152 53.5455 795.976 52.9886 794.146 51.875C792.328 50.75 790.925 49.1818 789.936 47.1705C788.959 45.1477 788.47 42.7955 788.47 40.1136C788.47 37.4318 788.959 35.0682 789.936 33.0227C790.925 30.9659 792.3 29.3636 794.061 28.2159C795.834 27.0568 797.902 26.4773 800.266 26.4773C801.629 26.4773 802.976 26.7045 804.305 27.1591C805.635 27.6136 806.845 28.3523 807.936 29.375C809.027 30.3864 809.896 31.7273 810.544 33.3977C811.192 35.0682 811.516 37.125 811.516 39.5682V41.2727H791.334V37.7955H807.425C807.425 36.3182 807.129 35 806.538 33.8409C805.959 32.6818 805.129 31.767 804.05 31.0966C802.982 30.4261 801.72 30.0909 800.266 30.0909C798.663 30.0909 797.277 30.4886 796.107 31.2841C794.947 32.0682 794.055 33.0909 793.43 34.3523C792.805 35.6136 792.493 36.9659 792.493 38.4091V40.7273C792.493 42.7045 792.834 44.3807 793.516 45.7557C794.209 47.1193 795.169 48.1591 796.396 48.875C797.624 49.5795 799.05 49.9318 800.675 49.9318C801.732 49.9318 802.686 49.7841 803.538 49.4886C804.402 49.1818 805.146 48.7273 805.771 48.125C806.396 47.5114 806.879 46.75 807.22 45.8409L811.107 46.9318C810.697 48.25 810.01 49.4091 809.044 50.4091C808.078 51.3977 806.885 52.1705 805.464 52.7273C804.044 53.2727 802.447 53.5455 800.675 53.5455ZM828.612 53.5455C826.089 53.5455 823.913 52.9886 822.084 51.875C820.266 50.75 818.862 49.1818 817.874 47.1705C816.896 45.1477 816.408 42.7955 816.408 40.1136C816.408 37.4318 816.896 35.0682 817.874 33.0227C818.862 30.9659 820.237 29.3636 821.999 28.2159C823.771 27.0568 825.839 26.4773 828.203 26.4773C829.567 26.4773 830.913 26.7045 832.243 27.1591C833.572 27.6136 834.783 28.3523 835.874 29.375C836.964 30.3864 837.834 31.7273 838.482 33.3977C839.129 35.0682 839.453 37.125 839.453 39.5682V41.2727H819.271V37.7955H835.362C835.362 36.3182 835.067 35 834.476 33.8409C833.896 32.6818 833.067 31.767 831.987 31.0966C830.919 30.4261 829.658 30.0909 828.203 30.0909C826.601 30.0909 825.214 30.4886 824.044 31.2841C822.885 32.0682 821.993 33.0909 821.368 34.3523C820.743 35.6136 820.43 36.9659 820.43 38.4091V40.7273C820.43 42.7045 820.771 44.3807 821.453 45.7557C822.146 47.1193 823.107 48.1591 824.334 48.875C825.561 49.5795 826.987 49.9318 828.612 49.9318C829.669 49.9318 830.624 49.7841 831.476 49.4886C832.339 49.1818 833.084 48.7273 833.709 48.125C834.334 47.5114 834.817 46.75 835.158 45.8409L839.044 46.9318C838.635 48.25 837.947 49.4091 836.982 50.4091C836.016 51.3977 834.822 52.1705 833.402 52.7273C831.982 53.2727 830.385 53.5455 828.612 53.5455ZM856.959 26.8182V30.2273H843.391V26.8182H856.959ZM847.345 20.5455H851.368V45.5C851.368 46.6364 851.533 47.4886 851.862 48.0568C852.203 48.6136 852.635 48.9886 853.158 49.1818C853.692 49.3636 854.254 49.4545 854.845 49.4545C855.288 49.4545 855.652 49.4318 855.936 49.3864C856.22 49.3295 856.447 49.2841 856.618 49.25L857.436 52.8636C857.163 52.9659 856.783 53.0682 856.294 53.1705C855.805 53.2841 855.186 53.3409 854.436 53.3409C853.3 53.3409 852.186 53.0966 851.095 52.608C850.016 52.1193 849.118 51.375 848.402 50.375C847.697 49.375 847.345 48.1136 847.345 46.5909V20.5455ZM877.055 53V18.0909H881.283V49.25H897.51V53H877.055ZM903.51 53V26.8182H907.533V53H903.51ZM905.555 22.4545C904.771 22.4545 904.095 22.1875 903.527 21.6534C902.97 21.1193 902.692 20.4773 902.692 19.7273C902.692 18.9773 902.97 18.3352 903.527 17.8011C904.095 17.267 904.771 17 905.555 17C906.339 17 907.01 17.267 907.567 17.8011C908.135 18.3352 908.419 18.9773 908.419 19.7273C908.419 20.4773 908.135 21.1193 907.567 21.6534C907.01 22.1875 906.339 22.4545 905.555 22.4545ZM925.469 63.3636C923.526 63.3636 921.855 63.1136 920.457 62.6136C919.06 62.125 917.895 61.4773 916.963 60.6705C916.043 59.875 915.31 59.0227 914.764 58.1136L917.969 55.8636C918.332 56.3409 918.793 56.8864 919.349 57.5C919.906 58.125 920.668 58.6648 921.634 59.1193C922.611 59.5852 923.889 59.8182 925.469 59.8182C927.582 59.8182 929.327 59.3068 930.702 58.2841C932.077 57.2614 932.764 55.6591 932.764 53.4773V48.1591H932.423C932.128 48.6364 931.707 49.2273 931.162 49.9318C930.628 50.625 929.855 51.2443 928.844 51.7898C927.844 52.3239 926.491 52.5909 924.787 52.5909C922.673 52.5909 920.776 52.0909 919.094 51.0909C917.423 50.0909 916.099 48.6364 915.122 46.7273C914.156 44.8182 913.673 42.5 913.673 39.7727C913.673 37.0909 914.145 34.7557 915.088 32.767C916.031 30.767 917.344 29.2216 919.026 28.1307C920.707 27.0284 922.651 26.4773 924.855 26.4773C926.56 26.4773 927.912 26.7614 928.912 27.3295C929.923 27.8864 930.696 28.5227 931.23 29.2386C931.776 29.9432 932.196 30.5227 932.491 30.9773H932.901V26.8182H936.787V53.75C936.787 56 936.276 57.8295 935.253 59.2386C934.241 60.6591 932.878 61.6989 931.162 62.358C929.457 63.0284 927.56 63.3636 925.469 63.3636ZM925.332 48.9773C926.946 48.9773 928.31 48.608 929.423 47.8693C930.537 47.1307 931.384 46.0682 931.963 44.6818C932.543 43.2955 932.832 41.6364 932.832 39.7045C932.832 37.8182 932.548 36.1534 931.98 34.7102C931.412 33.267 930.571 32.1364 929.457 31.3182C928.344 30.5 926.969 30.0909 925.332 30.0909C923.628 30.0909 922.207 30.5227 921.071 31.3864C919.946 32.25 919.099 33.4091 918.531 34.8636C917.974 36.3182 917.696 37.9318 917.696 39.7045C917.696 41.5227 917.98 43.1307 918.548 44.5284C919.128 45.9148 919.98 47.0057 921.105 47.8011C922.241 48.5852 923.651 48.9773 925.332 48.9773ZM948.173 37.25V53H944.151V18.0909H948.173V30.9091H948.514C949.128 29.5568 950.048 28.483 951.276 27.6875C952.514 26.8807 954.162 26.4773 956.219 26.4773C958.003 26.4773 959.565 26.8352 960.906 27.5511C962.247 28.2557 963.287 29.3409 964.026 30.8068C964.776 32.2614 965.151 34.1136 965.151 36.3636V53H961.128V36.6364C961.128 34.5568 960.588 32.9489 959.509 31.8125C958.44 30.6648 956.957 30.0909 955.06 30.0909C953.741 30.0909 952.56 30.3693 951.514 30.9261C950.48 31.483 949.662 32.2955 949.06 33.3636C948.469 34.4318 948.173 35.7273 948.173 37.25ZM983.896 26.8182V30.2273H970.328V26.8182H983.896ZM974.283 20.5455H978.305V45.5C978.305 46.6364 978.47 47.4886 978.8 48.0568C979.141 48.6136 979.572 48.9886 980.095 49.1818C980.629 49.3636 981.192 49.4545 981.783 49.4545C982.226 49.4545 982.589 49.4318 982.874 49.3864C983.158 49.3295 983.385 49.2841 983.555 49.25L984.374 52.8636C984.101 52.9659 983.72 53.0682 983.232 53.1705C982.743 53.2841 982.124 53.3409 981.374 53.3409C980.237 53.3409 979.124 53.0966 978.033 52.608C976.953 52.1193 976.055 51.375 975.339 50.375C974.635 49.375 974.283 48.1136 974.283 46.5909V20.5455ZM1008.02 32.6818L1004.41 33.7045C1004.18 33.1023 1003.85 32.517 1003.4 31.9489C1002.97 31.3693 1002.38 30.892 1001.63 30.517C1000.88 30.142 999.922 29.9545 998.751 29.9545C997.149 29.9545 995.814 30.3239 994.746 31.0625C993.689 31.7898 993.161 32.7159 993.161 33.8409C993.161 34.8409 993.524 35.6307 994.251 36.2102C994.979 36.7898 996.115 37.2727 997.661 37.6591L1001.55 38.6136C1003.89 39.1818 1005.63 40.0511 1006.78 41.2216C1007.93 42.3807 1008.5 43.875 1008.5 45.7045C1008.5 47.2045 1008.07 48.5455 1007.21 49.7273C1006.35 50.9091 1005.16 51.8409 1003.63 52.5227C1002.09 53.2045 1000.31 53.5455 998.274 53.5455C995.604 53.5455 993.393 52.9659 991.643 51.8068C989.893 50.6477 988.786 48.9545 988.32 46.7273L992.138 45.7727C992.501 47.1818 993.189 48.2386 994.2 48.9432C995.223 49.6477 996.558 50 998.206 50C1000.08 50 1001.57 49.6023 1002.67 48.8068C1003.79 48 1004.34 47.0341 1004.34 45.9091C1004.34 45 1004.02 44.2386 1003.39 43.625C1002.75 43 1001.77 42.5341 1000.46 42.2273L996.092 41.2045C993.695 40.6364 991.933 39.7557 990.808 38.5625C989.695 37.358 989.138 35.8523 989.138 34.0455C989.138 32.5682 989.553 31.2614 990.382 30.125C991.223 28.9886 992.365 28.0966 993.808 27.4489C995.263 26.8011 996.911 26.4773 998.751 26.4773C1001.34 26.4773 1003.38 27.0455 1004.85 28.1818C1006.34 29.3182 1007.4 30.8182 1008.02 32.6818ZM165.917 125H161.485L174.303 90.0909H178.667L191.485 125H187.053L176.621 95.6136H176.349L165.917 125ZM167.553 111.364H185.417V115.114H167.553V111.364ZM200.4 109.25V125H196.377V98.8182H200.263V102.909H200.604C201.218 101.58 202.15 100.511 203.4 99.7045C204.65 98.8864 206.263 98.4773 208.241 98.4773C210.013 98.4773 211.565 98.8409 212.894 99.5682C214.224 100.284 215.258 101.375 215.996 102.841C216.735 104.295 217.104 106.136 217.104 108.364V125H213.082V108.636C213.082 106.58 212.548 104.977 211.479 103.83C210.411 102.67 208.945 102.091 207.082 102.091C205.798 102.091 204.65 102.369 203.638 102.926C202.638 103.483 201.849 104.295 201.269 105.364C200.69 106.432 200.4 107.727 200.4 109.25ZM234.342 125.545C232.16 125.545 230.234 124.994 228.563 123.892C226.893 122.778 225.586 121.21 224.643 119.188C223.7 117.153 223.228 114.75 223.228 111.977C223.228 109.227 223.7 106.841 224.643 104.818C225.586 102.795 226.898 101.233 228.58 100.131C230.262 99.0284 232.205 98.4773 234.41 98.4773C236.114 98.4773 237.461 98.7614 238.45 99.3295C239.45 99.8864 240.211 100.523 240.734 101.239C241.268 101.943 241.683 102.523 241.978 102.977H242.319V90.0909H246.342V125H242.455V120.977H241.978C241.683 121.455 241.262 122.057 240.717 122.784C240.171 123.5 239.393 124.142 238.381 124.71C237.37 125.267 236.023 125.545 234.342 125.545ZM234.887 121.932C236.501 121.932 237.864 121.511 238.978 120.67C240.092 119.818 240.938 118.642 241.518 117.142C242.097 115.631 242.387 113.886 242.387 111.909C242.387 109.955 242.103 108.244 241.535 106.778C240.967 105.301 240.126 104.153 239.012 103.335C237.898 102.506 236.523 102.091 234.887 102.091C233.183 102.091 231.762 102.528 230.626 103.403C229.501 104.267 228.654 105.443 228.086 106.932C227.529 108.409 227.251 110.068 227.251 111.909C227.251 113.773 227.535 115.466 228.103 116.989C228.683 118.5 229.535 119.705 230.66 120.602C231.796 121.489 233.205 121.932 234.887 121.932ZM266.404 93.8409V90.0909H292.586V93.8409H281.609V125H277.381V93.8409H266.404ZM302.587 109.25V125H298.565V90.0909H302.587V102.909H302.928C303.542 101.557 304.462 100.483 305.69 99.6875C306.928 98.8807 308.576 98.4773 310.633 98.4773C312.417 98.4773 313.979 98.8352 315.32 99.5511C316.661 100.256 317.701 101.341 318.44 102.807C319.19 104.261 319.565 106.114 319.565 108.364V125H315.542V108.636C315.542 106.557 315.002 104.949 313.923 103.812C312.854 102.665 311.371 102.091 309.474 102.091C308.156 102.091 306.974 102.369 305.928 102.926C304.894 103.483 304.076 104.295 303.474 105.364C302.883 106.432 302.587 107.727 302.587 109.25ZM337.901 125.545C335.379 125.545 333.202 124.989 331.373 123.875C329.555 122.75 328.151 121.182 327.163 119.17C326.185 117.148 325.697 114.795 325.697 112.114C325.697 109.432 326.185 107.068 327.163 105.023C328.151 102.966 329.526 101.364 331.288 100.216C333.06 99.0568 335.129 98.4773 337.492 98.4773C338.856 98.4773 340.202 98.7045 341.532 99.1591C342.862 99.6136 344.072 100.352 345.163 101.375C346.254 102.386 347.123 103.727 347.771 105.398C348.418 107.068 348.742 109.125 348.742 111.568V113.273H328.56V109.795H344.651C344.651 108.318 344.356 107 343.765 105.841C343.185 104.682 342.356 103.767 341.276 103.097C340.208 102.426 338.947 102.091 337.492 102.091C335.89 102.091 334.504 102.489 333.333 103.284C332.174 104.068 331.282 105.091 330.657 106.352C330.032 107.614 329.719 108.966 329.719 110.409V112.727C329.719 114.705 330.06 116.381 330.742 117.756C331.435 119.119 332.396 120.159 333.623 120.875C334.85 121.58 336.276 121.932 337.901 121.932C338.958 121.932 339.913 121.784 340.765 121.489C341.629 121.182 342.373 120.727 342.998 120.125C343.623 119.511 344.106 118.75 344.447 117.841L348.333 118.932C347.924 120.25 347.237 121.409 346.271 122.409C345.305 123.398 344.112 124.17 342.691 124.727C341.271 125.273 339.674 125.545 337.901 125.545ZM396.998 101H392.771C392.521 99.7841 392.083 98.7159 391.458 97.7955C390.844 96.875 390.094 96.1023 389.208 95.4773C388.333 94.8409 387.362 94.3636 386.293 94.0455C385.225 93.7273 384.112 93.5682 382.952 93.5682C380.839 93.5682 378.924 94.1023 377.208 95.1705C375.504 96.2386 374.146 97.8125 373.134 99.892C372.134 101.972 371.634 104.523 371.634 107.545C371.634 110.568 372.134 113.119 373.134 115.199C374.146 117.278 375.504 118.852 377.208 119.92C378.924 120.989 380.839 121.523 382.952 121.523C384.112 121.523 385.225 121.364 386.293 121.045C387.362 120.727 388.333 120.256 389.208 119.631C390.094 118.994 390.844 118.216 391.458 117.295C392.083 116.364 392.521 115.295 392.771 114.091H396.998C396.68 115.875 396.1 117.472 395.259 118.881C394.418 120.29 393.373 121.489 392.123 122.477C390.873 123.455 389.469 124.199 387.913 124.71C386.367 125.222 384.714 125.477 382.952 125.477C379.975 125.477 377.327 124.75 375.009 123.295C372.691 121.841 370.867 119.773 369.538 117.091C368.208 114.409 367.543 111.227 367.543 107.545C367.543 103.864 368.208 100.682 369.538 98C370.867 95.3182 372.691 93.25 375.009 91.7955C377.327 90.3409 379.975 89.6136 382.952 89.6136C384.714 89.6136 386.367 89.8693 387.913 90.3807C389.469 90.892 390.873 91.642 392.123 92.6307C393.373 93.608 394.418 94.8011 395.259 96.2102C396.1 97.608 396.68 99.2045 396.998 101ZM403.283 125V98.8182H407.306V125H403.283ZM405.329 94.4545C404.545 94.4545 403.869 94.1875 403.3 93.6534C402.744 93.1193 402.465 92.4773 402.465 91.7273C402.465 90.9773 402.744 90.3352 403.3 89.8011C403.869 89.267 404.545 89 405.329 89C406.113 89 406.783 89.267 407.34 89.8011C407.908 90.3352 408.192 90.9773 408.192 91.7273C408.192 92.4773 407.908 93.1193 407.34 93.6534C406.783 94.1875 406.113 94.4545 405.329 94.4545ZM426.06 98.8182V102.227H412.492V98.8182H426.06ZM416.447 92.5455H420.469V117.5C420.469 118.636 420.634 119.489 420.964 120.057C421.305 120.614 421.737 120.989 422.259 121.182C422.793 121.364 423.356 121.455 423.947 121.455C424.39 121.455 424.754 121.432 425.038 121.386C425.322 121.33 425.549 121.284 425.719 121.25L426.538 124.864C426.265 124.966 425.884 125.068 425.396 125.17C424.907 125.284 424.288 125.341 423.538 125.341C422.401 125.341 421.288 125.097 420.197 124.608C419.117 124.119 418.219 123.375 417.504 122.375C416.799 121.375 416.447 120.114 416.447 118.591V92.5455ZM432.112 125V98.8182H436.134V125H432.112ZM434.157 94.4545C433.373 94.4545 432.697 94.1875 432.129 93.6534C431.572 93.1193 431.293 92.4773 431.293 91.7273C431.293 90.9773 431.572 90.3352 432.129 89.8011C432.697 89.267 433.373 89 434.157 89C434.941 89 435.612 89.267 436.168 89.8011C436.737 90.3352 437.021 90.9773 437.021 91.7273C437.021 92.4773 436.737 93.1193 436.168 93.6534C435.612 94.1875 434.941 94.4545 434.157 94.4545ZM454.479 125.545C451.957 125.545 449.781 124.989 447.951 123.875C446.133 122.75 444.729 121.182 443.741 119.17C442.763 117.148 442.275 114.795 442.275 112.114C442.275 109.432 442.763 107.068 443.741 105.023C444.729 102.966 446.104 101.364 447.866 100.216C449.638 99.0568 451.707 98.4773 454.07 98.4773C455.434 98.4773 456.781 98.7045 458.11 99.1591C459.44 99.6136 460.65 100.352 461.741 101.375C462.832 102.386 463.701 103.727 464.349 105.398C464.996 107.068 465.32 109.125 465.32 111.568V113.273H445.138V109.795H461.229C461.229 108.318 460.934 107 460.343 105.841C459.763 104.682 458.934 103.767 457.854 103.097C456.786 102.426 455.525 102.091 454.07 102.091C452.468 102.091 451.082 102.489 449.911 103.284C448.752 104.068 447.86 105.091 447.235 106.352C446.61 107.614 446.298 108.966 446.298 110.409V112.727C446.298 114.705 446.638 116.381 447.32 117.756C448.013 119.119 448.974 120.159 450.201 120.875C451.428 121.58 452.854 121.932 454.479 121.932C455.536 121.932 456.491 121.784 457.343 121.489C458.207 121.182 458.951 120.727 459.576 120.125C460.201 119.511 460.684 118.75 461.025 117.841L464.911 118.932C464.502 120.25 463.815 121.409 462.849 122.409C461.883 123.398 460.69 124.17 459.269 124.727C457.849 125.273 456.252 125.545 454.479 125.545ZM489.985 104.682L486.371 105.705C486.144 105.102 485.809 104.517 485.366 103.949C484.934 103.369 484.343 102.892 483.593 102.517C482.843 102.142 481.883 101.955 480.712 101.955C479.11 101.955 477.775 102.324 476.707 103.062C475.65 103.79 475.121 104.716 475.121 105.841C475.121 106.841 475.485 107.631 476.212 108.21C476.94 108.79 478.076 109.273 479.621 109.659L483.508 110.614C485.849 111.182 487.593 112.051 488.741 113.222C489.888 114.381 490.462 115.875 490.462 117.705C490.462 119.205 490.031 120.545 489.167 121.727C488.315 122.909 487.121 123.841 485.587 124.523C484.053 125.205 482.269 125.545 480.235 125.545C477.565 125.545 475.354 124.966 473.604 123.807C471.854 122.648 470.746 120.955 470.281 118.727L474.099 117.773C474.462 119.182 475.15 120.239 476.161 120.943C477.184 121.648 478.519 122 480.167 122C482.042 122 483.531 121.602 484.633 120.807C485.746 120 486.303 119.034 486.303 117.909C486.303 117 485.985 116.239 485.349 115.625C484.712 115 483.735 114.534 482.417 114.227L478.053 113.205C475.656 112.636 473.894 111.756 472.769 110.562C471.656 109.358 471.099 107.852 471.099 106.045C471.099 104.568 471.513 103.261 472.343 102.125C473.184 100.989 474.326 100.097 475.769 99.4489C477.224 98.8011 478.871 98.4773 480.712 98.4773C483.303 98.4773 485.337 99.0455 486.815 100.182C488.303 101.318 489.36 102.818 489.985 104.682ZM540.018 107.545C540.018 111.227 539.353 114.409 538.023 117.091C536.694 119.773 534.87 121.841 532.552 123.295C530.234 124.75 527.586 125.477 524.609 125.477C521.631 125.477 518.984 124.75 516.665 123.295C514.347 121.841 512.523 119.773 511.194 117.091C509.864 114.409 509.2 111.227 509.2 107.545C509.2 103.864 509.864 100.682 511.194 98C512.523 95.3182 514.347 93.25 516.665 91.7955C518.984 90.3409 521.631 89.6136 524.609 89.6136C527.586 89.6136 530.234 90.3409 532.552 91.7955C534.87 93.25 536.694 95.3182 538.023 98C539.353 100.682 540.018 103.864 540.018 107.545ZM535.927 107.545C535.927 104.523 535.421 101.972 534.41 99.892C533.41 97.8125 532.052 96.2386 530.336 95.1705C528.631 94.1023 526.722 93.5682 524.609 93.5682C522.495 93.5682 520.58 94.1023 518.864 95.1705C517.16 96.2386 515.802 97.8125 514.79 99.892C513.79 101.972 513.29 104.523 513.29 107.545C513.29 110.568 513.79 113.119 514.79 115.199C515.802 117.278 517.16 118.852 518.864 119.92C520.58 120.989 522.495 121.523 524.609 121.523C526.722 121.523 528.631 120.989 530.336 119.92C532.052 118.852 533.41 117.278 534.41 115.199C535.421 113.119 535.927 110.568 535.927 107.545ZM558.239 98.8182V102.227H544.126V98.8182H558.239ZM548.353 125V95.2045C548.353 93.7045 548.705 92.4545 549.41 91.4545C550.114 90.4545 551.029 89.7045 552.154 89.2045C553.279 88.7045 554.467 88.4545 555.717 88.4545C556.705 88.4545 557.512 88.5341 558.137 88.6932C558.762 88.8523 559.228 89 559.535 89.1364L558.376 92.6136C558.171 92.5455 557.887 92.4602 557.523 92.358C557.171 92.2557 556.705 92.2045 556.126 92.2045C554.796 92.2045 553.836 92.5398 553.245 93.2102C552.665 93.8807 552.376 94.8636 552.376 96.1591V125H548.353ZM576.013 93.8409V90.0909H602.195V93.8409H591.218V125H586.991V93.8409H576.013ZM615.013 125.545C612.65 125.545 610.576 124.983 608.792 123.858C607.019 122.733 605.633 121.159 604.633 119.136C603.644 117.114 603.15 114.75 603.15 112.045C603.15 109.318 603.644 106.937 604.633 104.903C605.633 102.869 607.019 101.29 608.792 100.165C610.576 99.0398 612.65 98.4773 615.013 98.4773C617.377 98.4773 619.445 99.0398 621.218 100.165C623.002 101.29 624.388 102.869 625.377 104.903C626.377 106.937 626.877 109.318 626.877 112.045C626.877 114.75 626.377 117.114 625.377 119.136C624.388 121.159 623.002 122.733 621.218 123.858C619.445 124.983 617.377 125.545 615.013 125.545ZM615.013 121.932C616.809 121.932 618.286 121.472 619.445 120.551C620.604 119.631 621.462 118.42 622.019 116.92C622.576 115.42 622.854 113.795 622.854 112.045C622.854 110.295 622.576 108.665 622.019 107.153C621.462 105.642 620.604 104.42 619.445 103.489C618.286 102.557 616.809 102.091 615.013 102.091C613.218 102.091 611.741 102.557 610.582 103.489C609.423 104.42 608.565 105.642 608.008 107.153C607.451 108.665 607.173 110.295 607.173 112.045C607.173 113.795 607.451 115.42 608.008 116.92C608.565 118.42 609.423 119.631 610.582 120.551C611.741 121.472 613.218 121.932 615.013 121.932ZM633.018 125V98.8182H636.904V102.909H637.245C637.79 101.511 638.671 100.426 639.887 99.6534C641.103 98.8693 642.563 98.4773 644.268 98.4773C645.995 98.4773 647.433 98.8693 648.58 99.6534C649.739 100.426 650.643 101.511 651.29 102.909H651.563C652.234 101.557 653.239 100.483 654.58 99.6875C655.921 98.8807 657.529 98.4773 659.404 98.4773C661.745 98.4773 663.66 99.2102 665.148 100.676C666.637 102.131 667.381 104.398 667.381 107.477V125H663.359V107.477C663.359 105.545 662.83 104.165 661.773 103.335C660.717 102.506 659.472 102.091 658.04 102.091C656.2 102.091 654.773 102.648 653.762 103.761C652.751 104.864 652.245 106.261 652.245 107.955V125H648.154V107.068C648.154 105.58 647.671 104.381 646.705 103.472C645.739 102.551 644.495 102.091 642.972 102.091C641.927 102.091 640.95 102.369 640.04 102.926C639.143 103.483 638.415 104.256 637.859 105.244C637.313 106.222 637.04 107.352 637.04 108.636V125H633.018ZM685.373 125.545C683.009 125.545 680.935 124.983 679.151 123.858C677.379 122.733 675.992 121.159 674.992 119.136C674.004 117.114 673.509 114.75 673.509 112.045C673.509 109.318 674.004 106.937 674.992 104.903C675.992 102.869 677.379 101.29 679.151 100.165C680.935 99.0398 683.009 98.4773 685.373 98.4773C687.737 98.4773 689.805 99.0398 691.577 100.165C693.362 101.29 694.748 102.869 695.737 104.903C696.737 106.937 697.237 109.318 697.237 112.045C697.237 114.75 696.737 117.114 695.737 119.136C694.748 121.159 693.362 122.733 691.577 123.858C689.805 124.983 687.737 125.545 685.373 125.545ZM685.373 121.932C687.168 121.932 688.646 121.472 689.805 120.551C690.964 119.631 691.822 118.42 692.379 116.92C692.935 115.42 693.214 113.795 693.214 112.045C693.214 110.295 692.935 108.665 692.379 107.153C691.822 105.642 690.964 104.42 689.805 103.489C688.646 102.557 687.168 102.091 685.373 102.091C683.577 102.091 682.1 102.557 680.941 103.489C679.782 104.42 678.924 105.642 678.367 107.153C677.81 108.665 677.532 110.295 677.532 112.045C677.532 113.795 677.81 115.42 678.367 116.92C678.924 118.42 679.782 119.631 680.941 120.551C682.1 121.472 683.577 121.932 685.373 121.932ZM703.377 125V98.8182H707.263V102.773H707.536C708.013 101.477 708.877 100.426 710.127 99.6193C711.377 98.8125 712.786 98.4091 714.354 98.4091C714.65 98.4091 715.019 98.4148 715.462 98.4261C715.906 98.4375 716.241 98.4545 716.468 98.4773V102.568C716.332 102.534 716.019 102.483 715.531 102.415C715.053 102.335 714.548 102.295 714.013 102.295C712.741 102.295 711.604 102.562 710.604 103.097C709.616 103.619 708.832 104.347 708.252 105.278C707.684 106.199 707.4 107.25 707.4 108.432V125H703.377ZM721.237 125V98.8182H725.123V102.773H725.396C725.873 101.477 726.737 100.426 727.987 99.6193C729.237 98.8125 730.646 98.4091 732.214 98.4091C732.509 98.4091 732.879 98.4148 733.322 98.4261C733.765 98.4375 734.1 98.4545 734.327 98.4773V102.568C734.191 102.534 733.879 102.483 733.39 102.415C732.913 102.335 732.407 102.295 731.873 102.295C730.6 102.295 729.464 102.562 728.464 103.097C727.475 103.619 726.691 104.347 726.112 105.278C725.543 106.199 725.259 107.25 725.259 108.432V125H721.237ZM748.935 125.545C746.572 125.545 744.498 124.983 742.714 123.858C740.941 122.733 739.555 121.159 738.555 119.136C737.566 117.114 737.072 114.75 737.072 112.045C737.072 109.318 737.566 106.937 738.555 104.903C739.555 102.869 740.941 101.29 742.714 100.165C744.498 99.0398 746.572 98.4773 748.935 98.4773C751.299 98.4773 753.367 99.0398 755.14 100.165C756.924 101.29 758.31 102.869 759.299 104.903C760.299 106.937 760.799 109.318 760.799 112.045C760.799 114.75 760.299 117.114 759.299 119.136C758.31 121.159 756.924 122.733 755.14 123.858C753.367 124.983 751.299 125.545 748.935 125.545ZM748.935 121.932C750.731 121.932 752.208 121.472 753.367 120.551C754.526 119.631 755.384 118.42 755.941 116.92C756.498 115.42 756.776 113.795 756.776 112.045C756.776 110.295 756.498 108.665 755.941 107.153C755.384 105.642 754.526 104.42 753.367 103.489C752.208 102.557 750.731 102.091 748.935 102.091C747.14 102.091 745.663 102.557 744.504 103.489C743.344 104.42 742.487 105.642 741.93 107.153C741.373 108.665 741.094 110.295 741.094 112.045C741.094 113.795 741.373 115.42 741.93 116.92C742.487 118.42 743.344 119.631 744.504 120.551C745.663 121.472 747.14 121.932 748.935 121.932ZM771.981 125L764.004 98.8182H768.231L773.89 118.864H774.163L779.754 98.8182H784.049L789.572 118.795H789.844L795.504 98.8182H799.731L791.754 125H787.799L782.072 104.886H781.663L775.935 125H771.981ZM804.418 125.273C803.577 125.273 802.856 124.972 802.254 124.369C801.651 123.767 801.35 123.045 801.35 122.205C801.35 121.364 801.651 120.642 802.254 120.04C802.856 119.437 803.577 119.136 804.418 119.136C805.259 119.136 805.981 119.437 806.583 120.04C807.185 120.642 807.487 121.364 807.487 122.205C807.487 122.761 807.344 123.273 807.06 123.739C806.788 124.205 806.418 124.58 805.952 124.864C805.498 125.136 804.987 125.273 804.418 125.273Z" fill="white"/>
</svg>
